<mxfile host="app.diagrams.net" agent="Mozilla/5.0 (Macintosh; Intel Mac OS X 10_15_7) AppleWebKit/537.36 (KHTML, like Gecko) Chrome/136.0.0.0 Safari/537.36 Edg/136.0.0.0" version="27.0.9">
  <diagram name="第 1 页" id="gakp5uhKkZB8L7Oz-iCr">
    <mxGraphModel dx="1815" dy="1154" grid="1" gridSize="10" guides="1" tooltips="1" connect="1" arrows="1" fold="1" page="1" pageScale="1" pageWidth="827" pageHeight="1169" math="0" shadow="0">
      <root>
        <mxCell id="0" />
        <mxCell id="1" parent="0" />
        <mxCell id="O2DdYDEXl5JaPvinvRzr-14" value="门店操作" style="swimlane;childLayout=stackLayout;resizeParent=1;resizeParentMax=0;startSize=20;html=1;" vertex="1" parent="1">
          <mxGeometry x="150" y="290" width="1316.559999999999" height="1630" as="geometry" />
        </mxCell>
        <mxCell id="O2DdYDEXl5JaPvinvRzr-15" value="RS-APP、RP-APP" style="swimlane;startSize=20;html=1;" vertex="1" parent="O2DdYDEXl5JaPvinvRzr-14">
          <mxGeometry y="20" width="344.99999999999955" height="1610" as="geometry" />
        </mxCell>
        <mxCell id="O2DdYDEXl5JaPvinvRzr-22" value="Actor" style="shape=umlActor;verticalLabelPosition=bottom;verticalAlign=top;html=1;" vertex="1" parent="O2DdYDEXl5JaPvinvRzr-15">
          <mxGeometry x="90" y="50" width="25" height="60" as="geometry" />
        </mxCell>
        <mxCell id="O2DdYDEXl5JaPvinvRzr-83" value="&lt;div&gt;END&lt;/div&gt;" style="ellipse;whiteSpace=wrap;html=1;verticalAlign=top;" vertex="1" parent="O2DdYDEXl5JaPvinvRzr-15">
          <mxGeometry x="45" y="552.5" width="111.25" height="45" as="geometry" />
        </mxCell>
        <mxCell id="O2DdYDEXl5JaPvinvRzr-85" value="RP 门店处理需要审批流，服务调用流程是相同的" style="text;html=1;align=center;verticalAlign=middle;whiteSpace=wrap;rounded=0;" vertex="1" parent="O2DdYDEXl5JaPvinvRzr-15">
          <mxGeometry x="70" y="160" width="130" height="50" as="geometry" />
        </mxCell>
        <mxCell id="O2DdYDEXl5JaPvinvRzr-117" value="JOB" style="swimlane;" vertex="1" parent="O2DdYDEXl5JaPvinvRzr-14">
          <mxGeometry x="344.99999999999955" y="20" width="255" height="1610" as="geometry" />
        </mxCell>
        <mxCell id="O2DdYDEXl5JaPvinvRzr-114" value="Actor" style="shape=umlActor;verticalLabelPosition=bottom;verticalAlign=top;html=1;" vertex="1" parent="O2DdYDEXl5JaPvinvRzr-117">
          <mxGeometry x="77.5" y="722.5" width="25" height="60" as="geometry" />
        </mxCell>
        <mxCell id="O2DdYDEXl5JaPvinvRzr-17" value="ruigu-crm" style="swimlane;startSize=20;html=1;" vertex="1" parent="O2DdYDEXl5JaPvinvRzr-14">
          <mxGeometry x="599.9999999999995" y="20" width="127.5" height="1610" as="geometry" />
        </mxCell>
        <mxCell id="O2DdYDEXl5JaPvinvRzr-25" value="创建门店" style="whiteSpace=wrap;html=1;verticalAlign=top;" vertex="1" parent="O2DdYDEXl5JaPvinvRzr-17">
          <mxGeometry x="22.5" y="65" width="82.5" height="30" as="geometry" />
        </mxCell>
        <mxCell id="O2DdYDEXl5JaPvinvRzr-50" value="" style="edgeStyle=orthogonalEdgeStyle;rounded=0;orthogonalLoop=1;jettySize=auto;html=1;" edge="1" parent="O2DdYDEXl5JaPvinvRzr-17" source="O2DdYDEXl5JaPvinvRzr-43" target="O2DdYDEXl5JaPvinvRzr-49">
          <mxGeometry relative="1" as="geometry" />
        </mxCell>
        <mxCell id="O2DdYDEXl5JaPvinvRzr-43" value="存储门店数据" style="whiteSpace=wrap;html=1;verticalAlign=top;" vertex="1" parent="O2DdYDEXl5JaPvinvRzr-17">
          <mxGeometry x="22.499999999999545" y="180" width="82.5" height="30" as="geometry" />
        </mxCell>
        <mxCell id="O2DdYDEXl5JaPvinvRzr-49" value="注册商城用户" style="whiteSpace=wrap;html=1;verticalAlign=top;" vertex="1" parent="O2DdYDEXl5JaPvinvRzr-17">
          <mxGeometry x="22.499999999999545" y="290" width="82.5" height="30" as="geometry" />
        </mxCell>
        <mxCell id="O2DdYDEXl5JaPvinvRzr-80" value="更新门店数据" style="whiteSpace=wrap;html=1;verticalAlign=top;" vertex="1" parent="O2DdYDEXl5JaPvinvRzr-17">
          <mxGeometry x="22.499999999999545" y="560" width="82.5" height="30" as="geometry" />
        </mxCell>
        <mxCell id="O2DdYDEXl5JaPvinvRzr-125" value="验证RS门店数据" style="whiteSpace=wrap;html=1;verticalAlign=top;" vertex="1" parent="O2DdYDEXl5JaPvinvRzr-17">
          <mxGeometry x="13.129999999999995" y="790" width="101.25" height="35" as="geometry" />
        </mxCell>
        <mxCell id="O2DdYDEXl5JaPvinvRzr-170" value="查询门店信息" style="whiteSpace=wrap;html=1;verticalAlign=top;" vertex="1" parent="O2DdYDEXl5JaPvinvRzr-17">
          <mxGeometry x="13.12999999999954" y="920" width="101.25" height="35" as="geometry" />
        </mxCell>
        <mxCell id="O2DdYDEXl5JaPvinvRzr-176" value="更新门店来源" style="whiteSpace=wrap;html=1;verticalAlign=top;" vertex="1" parent="O2DdYDEXl5JaPvinvRzr-17">
          <mxGeometry x="13.12000000000046" y="1050" width="101.25" height="35" as="geometry" />
        </mxCell>
        <mxCell id="O2DdYDEXl5JaPvinvRzr-19" value="crm-rp" style="swimlane;startSize=20;html=1;" vertex="1" parent="O2DdYDEXl5JaPvinvRzr-14">
          <mxGeometry x="727.4999999999995" y="20" width="139.99999999999955" height="1610" as="geometry" />
        </mxCell>
        <mxCell id="O2DdYDEXl5JaPvinvRzr-122" value="验证RP门店数据" style="whiteSpace=wrap;html=1;verticalAlign=top;" vertex="1" parent="O2DdYDEXl5JaPvinvRzr-19">
          <mxGeometry x="19.369999999999997" y="735" width="101.25" height="35" as="geometry" />
        </mxCell>
        <mxCell id="O2DdYDEXl5JaPvinvRzr-141" value="转移门店" style="whiteSpace=wrap;html=1;verticalAlign=top;" vertex="1" parent="O2DdYDEXl5JaPvinvRzr-19">
          <mxGeometry x="19.36999999999954" y="870" width="101.25" height="35" as="geometry" />
        </mxCell>
        <mxCell id="O2DdYDEXl5JaPvinvRzr-187" value="" style="edgeStyle=orthogonalEdgeStyle;rounded=0;orthogonalLoop=1;jettySize=auto;html=1;" edge="1" parent="O2DdYDEXl5JaPvinvRzr-19" source="O2DdYDEXl5JaPvinvRzr-181" target="O2DdYDEXl5JaPvinvRzr-186">
          <mxGeometry relative="1" as="geometry" />
        </mxCell>
        <mxCell id="O2DdYDEXl5JaPvinvRzr-188" value="省略部分流程" style="edgeLabel;html=1;align=center;verticalAlign=middle;resizable=0;points=[];" vertex="1" connectable="0" parent="O2DdYDEXl5JaPvinvRzr-187">
          <mxGeometry x="0.125" y="1" relative="1" as="geometry">
            <mxPoint as="offset" />
          </mxGeometry>
        </mxCell>
        <mxCell id="O2DdYDEXl5JaPvinvRzr-181" value="存储门店数据" style="whiteSpace=wrap;html=1;verticalAlign=top;" vertex="1" parent="O2DdYDEXl5JaPvinvRzr-19">
          <mxGeometry x="19.36999999999955" y="1130" width="101.25" height="35" as="geometry" />
        </mxCell>
        <mxCell id="O2DdYDEXl5JaPvinvRzr-186" value="更新销售&amp;amp;组信息" style="whiteSpace=wrap;html=1;verticalAlign=top;" vertex="1" parent="O2DdYDEXl5JaPvinvRzr-19">
          <mxGeometry x="19.36999999999955" y="1245" width="101.25" height="35" as="geometry" />
        </mxCell>
        <mxCell id="O2DdYDEXl5JaPvinvRzr-20" value="rs-service" style="swimlane;startSize=20;html=1;" vertex="1" parent="O2DdYDEXl5JaPvinvRzr-14">
          <mxGeometry x="867.4999999999991" y="20" width="161.87" height="1610" as="geometry">
            <mxRectangle y="20" width="40" height="440" as="alternateBounds" />
          </mxGeometry>
        </mxCell>
        <mxCell id="O2DdYDEXl5JaPvinvRzr-27" value="创建门店" style="whiteSpace=wrap;html=1;verticalAlign=top;" vertex="1" parent="O2DdYDEXl5JaPvinvRzr-20">
          <mxGeometry x="18.75" y="65" width="82.5" height="30" as="geometry" />
        </mxCell>
        <mxCell id="O2DdYDEXl5JaPvinvRzr-38" style="edgeStyle=orthogonalEdgeStyle;rounded=0;orthogonalLoop=1;jettySize=auto;html=1;exitX=0.5;exitY=1;exitDx=0;exitDy=0;entryX=0.5;entryY=0;entryDx=0;entryDy=0;" edge="1" parent="O2DdYDEXl5JaPvinvRzr-20" source="O2DdYDEXl5JaPvinvRzr-34" target="O2DdYDEXl5JaPvinvRzr-36">
          <mxGeometry relative="1" as="geometry" />
        </mxCell>
        <mxCell id="O2DdYDEXl5JaPvinvRzr-34" value="存储门店数据" style="whiteSpace=wrap;html=1;verticalAlign=top;" vertex="1" parent="O2DdYDEXl5JaPvinvRzr-20">
          <mxGeometry x="18.75" y="120" width="82.5" height="30" as="geometry" />
        </mxCell>
        <mxCell id="O2DdYDEXl5JaPvinvRzr-36" value="存储门店日志" style="whiteSpace=wrap;html=1;verticalAlign=top;" vertex="1" parent="O2DdYDEXl5JaPvinvRzr-20">
          <mxGeometry x="18.75" y="180" width="82.5" height="30" as="geometry" />
        </mxCell>
        <mxCell id="O2DdYDEXl5JaPvinvRzr-52" value="注册商城用户" style="whiteSpace=wrap;html=1;verticalAlign=top;" vertex="1" parent="O2DdYDEXl5JaPvinvRzr-20">
          <mxGeometry x="18.75" y="290" width="82.5" height="30" as="geometry" />
        </mxCell>
        <mxCell id="O2DdYDEXl5JaPvinvRzr-70" value="更新门店销售" style="whiteSpace=wrap;html=1;verticalAlign=top;" vertex="1" parent="O2DdYDEXl5JaPvinvRzr-20">
          <mxGeometry x="18.75" y="350" width="82.5" height="30" as="geometry" />
        </mxCell>
        <mxCell id="O2DdYDEXl5JaPvinvRzr-78" value="" style="edgeStyle=orthogonalEdgeStyle;rounded=0;orthogonalLoop=1;jettySize=auto;html=1;" edge="1" parent="O2DdYDEXl5JaPvinvRzr-20" source="O2DdYDEXl5JaPvinvRzr-76" target="O2DdYDEXl5JaPvinvRzr-77">
          <mxGeometry relative="1" as="geometry" />
        </mxCell>
        <mxCell id="O2DdYDEXl5JaPvinvRzr-76" value="更新门店信息" style="whiteSpace=wrap;html=1;verticalAlign=top;" vertex="1" parent="O2DdYDEXl5JaPvinvRzr-20">
          <mxGeometry x="18.75" y="490" width="82.5" height="30" as="geometry" />
        </mxCell>
        <mxCell id="O2DdYDEXl5JaPvinvRzr-77" value="存储更新日志" style="whiteSpace=wrap;html=1;verticalAlign=top;" vertex="1" parent="O2DdYDEXl5JaPvinvRzr-20">
          <mxGeometry x="18.75" y="560" width="82.5" height="30" as="geometry" />
        </mxCell>
        <mxCell id="O2DdYDEXl5JaPvinvRzr-149" value="更新门店来源" style="whiteSpace=wrap;html=1;verticalAlign=top;" vertex="1" parent="O2DdYDEXl5JaPvinvRzr-20">
          <mxGeometry x="30.310000000000006" y="870" width="101.25" height="35" as="geometry" />
        </mxCell>
        <mxCell id="O2DdYDEXl5JaPvinvRzr-161" value="更新门店来源" style="whiteSpace=wrap;html=1;verticalAlign=top;" vertex="1" parent="O2DdYDEXl5JaPvinvRzr-20">
          <mxGeometry x="42.5" y="980" width="101.25" height="35" as="geometry" />
        </mxCell>
        <mxCell id="O2DdYDEXl5JaPvinvRzr-189" value="更新销售信息" style="whiteSpace=wrap;html=1;verticalAlign=top;" vertex="1" parent="O2DdYDEXl5JaPvinvRzr-20">
          <mxGeometry x="30.310000000000006" y="1245" width="101.25" height="35" as="geometry" />
        </mxCell>
        <mxCell id="O2DdYDEXl5JaPvinvRzr-21" value="CC" style="swimlane;startSize=20;html=1;" vertex="1" parent="O2DdYDEXl5JaPvinvRzr-14">
          <mxGeometry x="1029.369999999999" y="20" width="150.9400000000001" height="1610" as="geometry" />
        </mxCell>
        <mxCell id="O2DdYDEXl5JaPvinvRzr-31" value="创建门店" style="whiteSpace=wrap;html=1;verticalAlign=top;" vertex="1" parent="O2DdYDEXl5JaPvinvRzr-21">
          <mxGeometry x="30.63" y="65" width="82.5" height="30" as="geometry" />
        </mxCell>
        <mxCell id="O2DdYDEXl5JaPvinvRzr-54" value="注册商城用户" style="whiteSpace=wrap;html=1;verticalAlign=top;" vertex="1" parent="O2DdYDEXl5JaPvinvRzr-21">
          <mxGeometry x="30.630000000000003" y="290" width="82.5" height="30" as="geometry" />
        </mxCell>
        <mxCell id="O2DdYDEXl5JaPvinvRzr-75" style="edgeStyle=orthogonalEdgeStyle;rounded=0;orthogonalLoop=1;jettySize=auto;html=1;dashed=1;" edge="1" parent="O2DdYDEXl5JaPvinvRzr-21" source="O2DdYDEXl5JaPvinvRzr-72">
          <mxGeometry relative="1" as="geometry">
            <mxPoint x="-60" y="490" as="targetPoint" />
            <Array as="points">
              <mxPoint x="81" y="470" />
              <mxPoint x="-59" y="470" />
            </Array>
          </mxGeometry>
        </mxCell>
        <mxCell id="O2DdYDEXl5JaPvinvRzr-72" value="更新门店销售" style="whiteSpace=wrap;html=1;verticalAlign=top;" vertex="1" parent="O2DdYDEXl5JaPvinvRzr-21">
          <mxGeometry x="40" y="410" width="82.5" height="30" as="geometry" />
        </mxCell>
        <mxCell id="O2DdYDEXl5JaPvinvRzr-151" value="更新门店来源" style="whiteSpace=wrap;html=1;verticalAlign=top;" vertex="1" parent="O2DdYDEXl5JaPvinvRzr-21">
          <mxGeometry x="40.000000000000114" y="980" width="101.25" height="35" as="geometry" />
        </mxCell>
        <mxCell id="O2DdYDEXl5JaPvinvRzr-191" value="更新销售信息" style="whiteSpace=wrap;html=1;verticalAlign=top;" vertex="1" parent="O2DdYDEXl5JaPvinvRzr-21">
          <mxGeometry x="30.630000000000113" y="1245" width="101.25" height="35" as="geometry" />
        </mxCell>
        <mxCell id="O2DdYDEXl5JaPvinvRzr-18" value="商城APP" style="swimlane;childLayout=stackLayout;resizeParent=1;resizeParentMax=0;startSize=20;html=1;" vertex="1" parent="O2DdYDEXl5JaPvinvRzr-14">
          <mxGeometry x="1180.309999999999" y="20" width="136.25" height="1610" as="geometry" />
        </mxCell>
        <mxCell id="O2DdYDEXl5JaPvinvRzr-26" value="" style="edgeStyle=orthogonalEdgeStyle;rounded=0;orthogonalLoop=1;jettySize=auto;html=1;" edge="1" parent="O2DdYDEXl5JaPvinvRzr-14" source="O2DdYDEXl5JaPvinvRzr-22" target="O2DdYDEXl5JaPvinvRzr-25">
          <mxGeometry relative="1" as="geometry" />
        </mxCell>
        <mxCell id="O2DdYDEXl5JaPvinvRzr-28" value="" style="edgeStyle=orthogonalEdgeStyle;rounded=0;orthogonalLoop=1;jettySize=auto;html=1;" edge="1" parent="O2DdYDEXl5JaPvinvRzr-14" source="O2DdYDEXl5JaPvinvRzr-25" target="O2DdYDEXl5JaPvinvRzr-27">
          <mxGeometry relative="1" as="geometry" />
        </mxCell>
        <mxCell id="O2DdYDEXl5JaPvinvRzr-32" value="" style="edgeStyle=orthogonalEdgeStyle;rounded=0;orthogonalLoop=1;jettySize=auto;html=1;" edge="1" parent="O2DdYDEXl5JaPvinvRzr-14" source="O2DdYDEXl5JaPvinvRzr-27" target="O2DdYDEXl5JaPvinvRzr-31">
          <mxGeometry relative="1" as="geometry" />
        </mxCell>
        <mxCell id="O2DdYDEXl5JaPvinvRzr-47" style="edgeStyle=orthogonalEdgeStyle;rounded=0;orthogonalLoop=1;jettySize=auto;html=1;entryX=1;entryY=0.5;entryDx=0;entryDy=0;dashed=1;" edge="1" parent="O2DdYDEXl5JaPvinvRzr-14" source="O2DdYDEXl5JaPvinvRzr-36" target="O2DdYDEXl5JaPvinvRzr-43">
          <mxGeometry relative="1" as="geometry" />
        </mxCell>
        <mxCell id="O2DdYDEXl5JaPvinvRzr-53" value="" style="edgeStyle=orthogonalEdgeStyle;rounded=0;orthogonalLoop=1;jettySize=auto;html=1;" edge="1" parent="O2DdYDEXl5JaPvinvRzr-14" source="O2DdYDEXl5JaPvinvRzr-49" target="O2DdYDEXl5JaPvinvRzr-52">
          <mxGeometry relative="1" as="geometry" />
        </mxCell>
        <mxCell id="O2DdYDEXl5JaPvinvRzr-55" value="" style="edgeStyle=orthogonalEdgeStyle;rounded=0;orthogonalLoop=1;jettySize=auto;html=1;" edge="1" parent="O2DdYDEXl5JaPvinvRzr-14" source="O2DdYDEXl5JaPvinvRzr-52" target="O2DdYDEXl5JaPvinvRzr-54">
          <mxGeometry relative="1" as="geometry" />
        </mxCell>
        <mxCell id="O2DdYDEXl5JaPvinvRzr-74" style="edgeStyle=orthogonalEdgeStyle;rounded=0;orthogonalLoop=1;jettySize=auto;html=1;exitX=0.5;exitY=1;exitDx=0;exitDy=0;entryX=0;entryY=0.5;entryDx=0;entryDy=0;" edge="1" parent="O2DdYDEXl5JaPvinvRzr-14" source="O2DdYDEXl5JaPvinvRzr-70" target="O2DdYDEXl5JaPvinvRzr-72">
          <mxGeometry relative="1" as="geometry" />
        </mxCell>
        <mxCell id="O2DdYDEXl5JaPvinvRzr-81" value="" style="edgeStyle=orthogonalEdgeStyle;rounded=0;orthogonalLoop=1;jettySize=auto;html=1;" edge="1" parent="O2DdYDEXl5JaPvinvRzr-14" source="O2DdYDEXl5JaPvinvRzr-77" target="O2DdYDEXl5JaPvinvRzr-80">
          <mxGeometry relative="1" as="geometry" />
        </mxCell>
        <mxCell id="O2DdYDEXl5JaPvinvRzr-84" value="" style="edgeStyle=orthogonalEdgeStyle;rounded=0;orthogonalLoop=1;jettySize=auto;html=1;" edge="1" parent="O2DdYDEXl5JaPvinvRzr-14" source="O2DdYDEXl5JaPvinvRzr-80" target="O2DdYDEXl5JaPvinvRzr-83">
          <mxGeometry relative="1" as="geometry" />
        </mxCell>
        <mxCell id="O2DdYDEXl5JaPvinvRzr-91" style="edgeStyle=orthogonalEdgeStyle;rounded=0;orthogonalLoop=1;jettySize=auto;html=1;entryX=1;entryY=0.5;entryDx=0;entryDy=0;dashed=1;" edge="1" parent="O2DdYDEXl5JaPvinvRzr-14" source="O2DdYDEXl5JaPvinvRzr-31" target="O2DdYDEXl5JaPvinvRzr-34">
          <mxGeometry relative="1" as="geometry">
            <Array as="points">
              <mxPoint x="950" y="155" />
            </Array>
          </mxGeometry>
        </mxCell>
        <mxCell id="O2DdYDEXl5JaPvinvRzr-93" style="edgeStyle=orthogonalEdgeStyle;rounded=0;orthogonalLoop=1;jettySize=auto;html=1;exitX=0.5;exitY=1;exitDx=0;exitDy=0;entryX=1;entryY=0.5;entryDx=0;entryDy=0;dashed=1;" edge="1" parent="O2DdYDEXl5JaPvinvRzr-14" source="O2DdYDEXl5JaPvinvRzr-54" target="O2DdYDEXl5JaPvinvRzr-70">
          <mxGeometry relative="1" as="geometry" />
        </mxCell>
        <mxCell id="O2DdYDEXl5JaPvinvRzr-123" value="" style="edgeStyle=orthogonalEdgeStyle;rounded=0;orthogonalLoop=1;jettySize=auto;html=1;" edge="1" parent="O2DdYDEXl5JaPvinvRzr-14" source="O2DdYDEXl5JaPvinvRzr-114" target="O2DdYDEXl5JaPvinvRzr-122">
          <mxGeometry relative="1" as="geometry" />
        </mxCell>
        <mxCell id="O2DdYDEXl5JaPvinvRzr-147" style="edgeStyle=orthogonalEdgeStyle;rounded=0;orthogonalLoop=1;jettySize=auto;html=1;exitX=0.5;exitY=1;exitDx=0;exitDy=0;entryX=1;entryY=0.5;entryDx=0;entryDy=0;" edge="1" parent="O2DdYDEXl5JaPvinvRzr-14" source="O2DdYDEXl5JaPvinvRzr-122" target="O2DdYDEXl5JaPvinvRzr-125">
          <mxGeometry relative="1" as="geometry" />
        </mxCell>
        <mxCell id="O2DdYDEXl5JaPvinvRzr-150" value="" style="edgeStyle=orthogonalEdgeStyle;rounded=0;orthogonalLoop=1;jettySize=auto;html=1;" edge="1" parent="O2DdYDEXl5JaPvinvRzr-14" source="O2DdYDEXl5JaPvinvRzr-141" target="O2DdYDEXl5JaPvinvRzr-149">
          <mxGeometry relative="1" as="geometry" />
        </mxCell>
        <mxCell id="O2DdYDEXl5JaPvinvRzr-166" value="" style="edgeStyle=orthogonalEdgeStyle;rounded=0;orthogonalLoop=1;jettySize=auto;html=1;entryX=1;entryY=0.5;entryDx=0;entryDy=0;" edge="1" parent="O2DdYDEXl5JaPvinvRzr-14" source="O2DdYDEXl5JaPvinvRzr-149" target="O2DdYDEXl5JaPvinvRzr-170">
          <mxGeometry relative="1" as="geometry">
            <mxPoint x="948.5" y="960" as="targetPoint" />
            <Array as="points">
              <mxPoint x="960" y="958" />
            </Array>
          </mxGeometry>
        </mxCell>
        <mxCell id="O2DdYDEXl5JaPvinvRzr-172" value="" style="edgeStyle=orthogonalEdgeStyle;rounded=0;orthogonalLoop=1;jettySize=auto;html=1;" edge="1" parent="O2DdYDEXl5JaPvinvRzr-14" source="O2DdYDEXl5JaPvinvRzr-170" target="O2DdYDEXl5JaPvinvRzr-161">
          <mxGeometry relative="1" as="geometry">
            <Array as="points">
              <mxPoint x="664" y="1018" />
            </Array>
          </mxGeometry>
        </mxCell>
        <mxCell id="O2DdYDEXl5JaPvinvRzr-174" style="edgeStyle=orthogonalEdgeStyle;rounded=0;orthogonalLoop=1;jettySize=auto;html=1;exitX=1;exitY=0.5;exitDx=0;exitDy=0;" edge="1" parent="O2DdYDEXl5JaPvinvRzr-14" source="O2DdYDEXl5JaPvinvRzr-161" target="O2DdYDEXl5JaPvinvRzr-151">
          <mxGeometry relative="1" as="geometry" />
        </mxCell>
        <mxCell id="O2DdYDEXl5JaPvinvRzr-175" value="通知CC" style="edgeLabel;html=1;align=center;verticalAlign=middle;resizable=0;points=[];" vertex="1" connectable="0" parent="O2DdYDEXl5JaPvinvRzr-174">
          <mxGeometry x="-0.1483" y="-1" relative="1" as="geometry">
            <mxPoint y="1" as="offset" />
          </mxGeometry>
        </mxCell>
        <mxCell id="O2DdYDEXl5JaPvinvRzr-177" style="edgeStyle=orthogonalEdgeStyle;rounded=0;orthogonalLoop=1;jettySize=auto;html=1;entryX=1;entryY=0.5;entryDx=0;entryDy=0;" edge="1" parent="O2DdYDEXl5JaPvinvRzr-14" source="O2DdYDEXl5JaPvinvRzr-161" target="O2DdYDEXl5JaPvinvRzr-176">
          <mxGeometry relative="1" as="geometry">
            <Array as="points">
              <mxPoint x="961" y="1088" />
            </Array>
          </mxGeometry>
        </mxCell>
        <mxCell id="O2DdYDEXl5JaPvinvRzr-178" value="通知RS" style="edgeLabel;html=1;align=center;verticalAlign=middle;resizable=0;points=[];" vertex="1" connectable="0" parent="O2DdYDEXl5JaPvinvRzr-177">
          <mxGeometry x="0.2194" y="-4" relative="1" as="geometry">
            <mxPoint as="offset" />
          </mxGeometry>
        </mxCell>
        <mxCell id="O2DdYDEXl5JaPvinvRzr-182" value="" style="edgeStyle=orthogonalEdgeStyle;rounded=0;orthogonalLoop=1;jettySize=auto;html=1;" edge="1" parent="O2DdYDEXl5JaPvinvRzr-14" source="O2DdYDEXl5JaPvinvRzr-161" target="O2DdYDEXl5JaPvinvRzr-181">
          <mxGeometry relative="1" as="geometry">
            <Array as="points">
              <mxPoint x="961" y="1168" />
            </Array>
          </mxGeometry>
        </mxCell>
        <mxCell id="O2DdYDEXl5JaPvinvRzr-190" value="" style="edgeStyle=orthogonalEdgeStyle;rounded=0;orthogonalLoop=1;jettySize=auto;html=1;" edge="1" parent="O2DdYDEXl5JaPvinvRzr-14" source="O2DdYDEXl5JaPvinvRzr-186" target="O2DdYDEXl5JaPvinvRzr-189">
          <mxGeometry relative="1" as="geometry" />
        </mxCell>
        <mxCell id="O2DdYDEXl5JaPvinvRzr-192" value="" style="edgeStyle=orthogonalEdgeStyle;rounded=0;orthogonalLoop=1;jettySize=auto;html=1;" edge="1" parent="O2DdYDEXl5JaPvinvRzr-14" source="O2DdYDEXl5JaPvinvRzr-189" target="O2DdYDEXl5JaPvinvRzr-191">
          <mxGeometry relative="1" as="geometry" />
        </mxCell>
      </root>
    </mxGraphModel>
  </diagram>
</mxfile>
